<svg id="Object" xmlns="http://www.w3.org/2000/svg" viewBox="0 0 1250 750">
  <rect y="-5.33" width="1250" height="760.67" fill="#29272a"/>
  <g>
    <path d="M221.29,310.46l-11.63,16.11-6.61,1-14.51-18.24v39.58H171.9V276.33H183l23.25,30.51,21.12-30.51H238v72.54H221.29Z" fill="#fff"/>
    <path d="M303,297.13l-20.27,51.52V373.4H267.48V348.87l-19-49.07,15.79-4.59,11.09,32.21L286,297.13Z" fill="#fff"/>
    <path d="M386.2,335.85l2,13H336.17V276.33h50l2,13.12H352.81v16.32h23l2,13.12H352.81v17Z" fill="#fff"/>
    <path d="M418.63,335.53l-8.54,13.34H391.42l17.18-26-16.21-23.15,15.89-4.16,10.35,16.11,9.28-14.51h18.34l-17.6,27.2,16.75,24.54H426.84Z" fill="#fff"/>
    <path d="M505.14,322.52q0,12.9-7.21,20.21T478.25,350a21.75,21.75,0,0,1-8.1-1.71V373.4H453.51V297.24h8.42l2.88,3.2a23.56,23.56,0,0,1,14.08-4.91q12.06,0,19.15,7T505.14,322.52Zm-17.18.1q0-6.39-2.88-10a9.65,9.65,0,0,0-8-3.63,12.43,12.43,0,0,0-6.93,2.46v23a14.27,14.27,0,0,0,7.36,2.24,9,9,0,0,0,7.57-3.9Q488,328.93,488,322.62Z" fill="#fff"/>
    <path d="M536.92,295.53a23.52,23.52,0,0,1,13.34,3.63,22.52,22.52,0,0,1,8.16,9.7,33.18,33.18,0,0,1,2.72,13.66v5H528q2.34,9.08,13.66,9.07a29.73,29.73,0,0,0,14.61-4.05l4.69,11.62a29.24,29.24,0,0,1-8.9,4.27,39.68,39.68,0,0,1-11.58,1.6q-14.19,0-22.35-7.15t-8.16-19.84a29.84,29.84,0,0,1,3.42-14.56,23.59,23.59,0,0,1,9.54-9.6A28.74,28.74,0,0,1,536.92,295.53Zm-.43,13.76a8.05,8.05,0,0,0-5.92,2.4,10.19,10.19,0,0,0-2.82,6.35h17.49a12.06,12.06,0,0,0-2.82-6.35A7.64,7.64,0,0,0,536.49,309.29Z" fill="#fff"/>
    <path d="M594.47,312.55a33.42,33.42,0,0,0-8.7,5.38v30.94H569V297.24h8.53l4.69,7.36a45.3,45.3,0,0,1,8.65-5.17,21.22,21.22,0,0,1,8.85-2.3l3.31,13.33A22.21,22.21,0,0,0,594.47,312.55Z" fill="#fff"/>
    <path d="M627.27,280.81a8.82,8.82,0,0,1-2.72,6.45A8.91,8.91,0,0,1,618,290a9.29,9.29,0,0,1-9.17-9.17,8.91,8.91,0,0,1,2.72-6.56,8.82,8.82,0,0,1,6.45-2.72,9.29,9.29,0,0,1,9.28,9.28Zm-.85,16.32v51.74H609.67V297.13Z" fill="#fff"/>
    <path d="M661.3,295.53a23.49,23.49,0,0,1,13.33,3.63,22.39,22.39,0,0,1,8.16,9.7,33.18,33.18,0,0,1,2.72,13.66v5H652.33q2.35,9.08,13.66,9.07a29.67,29.67,0,0,0,14.61-4.05l4.7,11.62a29.3,29.3,0,0,1-8.91,4.27,39.66,39.66,0,0,1-11.57,1.6q-14.19,0-22.35-7.15t-8.16-19.84a29.84,29.84,0,0,1,3.41-14.56,23.67,23.67,0,0,1,9.55-9.6A28.71,28.71,0,0,1,661.3,295.53Zm-.43,13.76a8,8,0,0,0-5.92,2.4,10.2,10.2,0,0,0-2.83,6.35h17.5a12.06,12.06,0,0,0-2.83-6.35A7.61,7.61,0,0,0,660.87,309.29Z" fill="#fff"/>
    <path d="M722.31,309.08q-4.48,0-12.16,4.48v35.31H693.4V297.13h10.35l2.88,5.44a45.2,45.2,0,0,1,10.19-5.17,30.65,30.65,0,0,1,10.4-2q9.6,0,13.92,5.5t4.32,15v33H728.71V317.18a9.82,9.82,0,0,0-1.6-5.92A5.59,5.59,0,0,0,722.31,309.08Z" fill="#fff"/>
    <path d="M780.87,295.53a37.25,37.25,0,0,1,9.07,1.28,24.85,24.85,0,0,1,8.74,4.05L794,312.49a38.05,38.05,0,0,0-6.29-2.4,23,23,0,0,0-5.76-.69,10.68,10.68,0,0,0-8.38,3.84,14.35,14.35,0,0,0-3.36,9.81,13.54,13.54,0,0,0,3.36,9.6,10.94,10.94,0,0,0,8.38,3.63,22,22,0,0,0,5.76-.75,36,36,0,0,0,6.29-2.45l4.69,11.73a21.67,21.67,0,0,1-8.58,4.06,40.42,40.42,0,0,1-9.23,1.17,32.2,32.2,0,0,1-14.67-3.2,22.78,22.78,0,0,1-9.81-9.33,28.92,28.92,0,0,1-3.47-14.46,29.53,29.53,0,0,1,3.47-14.56,23.64,23.64,0,0,1,9.81-9.6A30.89,30.89,0,0,1,780.87,295.53Z" fill="#fff"/>
    <path d="M829.4,295.53a23.5,23.5,0,0,1,13.34,3.63,22.52,22.52,0,0,1,8.16,9.7,33.18,33.18,0,0,1,2.72,13.66v5H820.44q2.35,9.08,13.66,9.07a29.73,29.73,0,0,0,14.61-4.05l4.69,11.62a29.12,29.12,0,0,1-8.9,4.27,39.68,39.68,0,0,1-11.58,1.6q-14.19,0-22.34-7.15t-8.16-19.84a29.84,29.84,0,0,1,3.41-14.56,23.61,23.61,0,0,1,9.55-9.6A28.67,28.67,0,0,1,829.4,295.53ZM829,309.29a8,8,0,0,0-5.92,2.4,10.2,10.2,0,0,0-2.83,6.35h17.49a12.06,12.06,0,0,0-2.82-6.35A7.63,7.63,0,0,0,829,309.29Z" fill="#fff"/>
    <path d="M910.36,350a33.12,33.12,0,0,1-14.82-3.15,23,23,0,0,1-10-9.28A28.88,28.88,0,0,1,882,322.84a27.89,27.89,0,0,1,3.68-14.51,24.59,24.59,0,0,1,10.13-9.49,31.89,31.89,0,0,1,14.78-3.31,32.66,32.66,0,0,1,14.88,3.26,23.52,23.52,0,0,1,10,9.43,29.11,29.11,0,0,1,3.58,14.83,27.29,27.29,0,0,1-3.68,14.4,24.41,24.41,0,0,1-10.19,9.34A32.84,32.84,0,0,1,910.36,350Zm11.42-27a15.36,15.36,0,0,0-3-9.81,9.78,9.78,0,0,0-8.06-3.84,10.29,10.29,0,0,0-8.32,3.68q-3.09,3.68-3.09,9.76t3,9.76a10.06,10.06,0,0,0,8.16,3.68,10.25,10.25,0,0,0,8.21-3.63Q921.77,329,921.78,323.05Z" fill="#fff"/>
    <path d="M950.9,311.32h-8.32v-13h8.32v-4.37q0-9.39,6.24-14.72t15.94-5.33a21.79,21.79,0,0,1,6.78,1.22,17.41,17.41,0,0,1,5.6,2.83l-4.8,11.63a14.31,14.31,0,0,0-6.62-1.71,5.74,5.74,0,0,0-4.8,2.19,9.43,9.43,0,0,0-1.7,5.92v2.34h12.05l3.09,13H967.54V373.4H950.9Z" fill="#fff"/>
    <path d="M221.29,438.47l-11.63,16.11-6.61,1-14.51-18.25v39.58H171.9V404.33H183l23.25,30.51,21.12-30.51H238v72.54H221.29Z" fill="#fff"/>
    <path d="M277.61,478a33.25,33.25,0,0,1-14.82-3.14,23.07,23.07,0,0,1-10-9.28,28.92,28.92,0,0,1-3.57-14.78,27.76,27.76,0,0,1,3.68-14.5,24.61,24.61,0,0,1,10.13-9.5,32,32,0,0,1,14.78-3.31,32.66,32.66,0,0,1,14.88,3.26,23.6,23.6,0,0,1,10,9.44,29.08,29.08,0,0,1,3.58,14.83,27.34,27.34,0,0,1-3.68,14.4,24.45,24.45,0,0,1-10.19,9.33A32.71,32.71,0,0,1,277.61,478Zm11.42-27a15.32,15.32,0,0,0-3-9.82,9.75,9.75,0,0,0-8.05-3.84,10.32,10.32,0,0,0-8.32,3.68q-3.09,3.69-3.09,9.76t3,9.76a10,10,0,0,0,8.16,3.68,10.27,10.27,0,0,0,8.21-3.62A14.31,14.31,0,0,0,289,451.06Z" fill="#fff"/>
    <path d="M363.59,476.87h-8.54L352,472.71A27.69,27.69,0,0,1,345,476.6a21.18,21.18,0,0,1-7.68,1.44q-12.06,0-19.2-7T311,451.06q0-12.92,7.25-20.22T338,423.53a20.53,20.53,0,0,1,8.85,2.14V402.73l16.75-1.17Zm-24.43-12.16q3.52,0,7.68-3V439.64a14,14,0,0,0-8.11-2.66,9,9,0,0,0-7.57,3.83q-2.88,3.84-2.88,10.14T331.16,461A9.6,9.6,0,0,0,339.16,464.71Z" fill="#fff"/>
    <path d="M399.64,423.53A23.46,23.46,0,0,1,413,427.16a22.42,22.42,0,0,1,8.16,9.71,32.94,32.94,0,0,1,2.72,13.65v5H390.68q2.34,9.06,13.65,9.06A29.73,29.73,0,0,0,419,460.55l4.69,11.63a29.29,29.29,0,0,1-8.91,4.26,39.66,39.66,0,0,1-11.57,1.6q-14.19,0-22.35-7.14t-8.16-19.84a29.81,29.81,0,0,1,3.42-14.56,23.61,23.61,0,0,1,9.54-9.61A28.74,28.74,0,0,1,399.64,423.53Zm-.43,13.76a8.09,8.09,0,0,0-5.92,2.4,10.22,10.22,0,0,0-2.82,6.35H408a12.1,12.1,0,0,0-2.83-6.35A7.63,7.63,0,0,0,399.21,437.29Z" fill="#fff"/>
    <path d="M457.19,440.55a33.28,33.28,0,0,0-8.7,5.39v30.93H431.75V425.24h8.53L445,432.6a46,46,0,0,1,8.64-5.17,21.27,21.27,0,0,1,8.86-2.3l3.3,13.34A22.13,22.13,0,0,0,457.19,440.55Z" fill="#fff"/>
    <path d="M501.29,437.08q-4.47,0-12.16,4.48v35.31H472.39V425.13h10.34l2.88,5.44a45.41,45.41,0,0,1,10.19-5.17,30.92,30.92,0,0,1,10.4-2q9.6,0,13.92,5.49t4.32,15v33H507.7V445.19a9.8,9.8,0,0,0-1.61-5.92A5.54,5.54,0,0,0,501.29,437.08Z" fill="#fff"/>
    <path d="M578.63,434.74h22.51l1.92,13.12H578.63v29H562V404.44h44.16l1.92,13H578.63Z" fill="#fff"/>
    <path d="M641.19,440.55a33.22,33.22,0,0,0-8.69,5.39v30.93H615.75V425.24h8.53l4.7,7.36a45.73,45.73,0,0,1,8.64-5.17,21.22,21.22,0,0,1,8.85-2.3l3.31,13.34A22.18,22.18,0,0,0,641.19,440.55Z" fill="#fff"/>
    <path d="M681.56,478a33.28,33.28,0,0,1-14.82-3.14,23.13,23.13,0,0,1-10-9.28,28.92,28.92,0,0,1-3.57-14.78,27.86,27.86,0,0,1,3.68-14.5,24.61,24.61,0,0,1,10.13-9.5,32,32,0,0,1,14.78-3.31,32.66,32.66,0,0,1,14.88,3.26,23.68,23.68,0,0,1,10,9.44,29.18,29.18,0,0,1,3.57,14.83,27.34,27.34,0,0,1-3.68,14.4,24.45,24.45,0,0,1-10.19,9.33A32.71,32.71,0,0,1,681.56,478Zm11.42-27a15.37,15.37,0,0,0-3-9.82,9.77,9.77,0,0,0-8.06-3.84,10.34,10.34,0,0,0-8.32,3.68q-3.09,3.69-3.09,9.76t3,9.76a10,10,0,0,0,8.16,3.68,10.3,10.3,0,0,0,8.22-3.62Q693,457,693,451.06Z" fill="#fff"/>
    <path d="M747.06,437.08q-4.48,0-12.16,4.48v35.31H718.15V425.13H728.5l2.88,5.44a45.2,45.2,0,0,1,10.19-5.17,30.87,30.87,0,0,1,10.4-2q9.6,0,13.92,5.49t4.32,15v33H753.46V445.19a9.8,9.8,0,0,0-1.6-5.92A5.57,5.57,0,0,0,747.06,437.08Z" fill="#fff"/>
    <path d="M800.5,426.31H812l3,13H800.5V456.6a9,9,0,0,0,1.81,5.87,6.11,6.11,0,0,0,5,2.24,14.27,14.27,0,0,0,6.61-1.71l4.8,11.63a16.85,16.85,0,0,1-5.55,2.67,23.29,23.29,0,0,1-6.93,1.17q-9.81,0-16.11-5.12t-6.29-14.51V439.32h-7.47v-13h7.47V413.19l16.64-2.56Z" fill="#fff"/>
    <path d="M849.35,423.53a23.5,23.5,0,0,1,13.34,3.63,22.55,22.55,0,0,1,8.16,9.71,33.1,33.1,0,0,1,2.72,13.65v5H840.39q2.36,9.06,13.66,9.06a29.73,29.73,0,0,0,14.61-4.05l4.69,11.63a29.11,29.11,0,0,1-8.9,4.26,39.68,39.68,0,0,1-11.58,1.6q-14.18,0-22.34-7.14t-8.16-19.84a29.81,29.81,0,0,1,3.41-14.56,23.63,23.63,0,0,1,9.55-9.61A28.7,28.7,0,0,1,849.35,423.53Zm-.42,13.76a8.08,8.08,0,0,0-5.92,2.4,10.23,10.23,0,0,0-2.83,6.35h17.49a12.09,12.09,0,0,0-2.82-6.35A7.65,7.65,0,0,0,848.93,437.29Z" fill="#fff"/>
    <path d="M910.37,437.08q-4.49,0-12.16,4.48v35.31H881.46V425.13h10.35l2.88,5.44a45.34,45.34,0,0,1,10.18-5.17,31,31,0,0,1,10.4-2q9.6,0,13.92,5.49t4.33,15v33H916.77V445.19a9.87,9.87,0,0,0-1.6-5.92A5.57,5.57,0,0,0,910.37,437.08Z" fill="#fff"/>
    <path d="M993.57,476.87H985l-3.1-4.16A27.51,27.51,0,0,1,975,476.6a21.18,21.18,0,0,1-7.68,1.44q-12.06,0-19.2-7T941,451.06q0-12.92,7.25-20.22T968,423.53a20.5,20.5,0,0,1,8.85,2.14V402.73l16.75-1.17Zm-24.43-12.16q3.52,0,7.68-3V439.64a14,14,0,0,0-8.11-2.66,9,9,0,0,0-7.57,3.83q-2.88,3.84-2.88,10.14T961.14,461A9.6,9.6,0,0,0,969.14,464.71Z" fill="#fff"/>
    <path d="M1022.9,478a48.11,48.11,0,0,1-10.35-1.38,24,24,0,0,1-9.7-4.27l4.9-10.88a37.86,37.86,0,0,0,7.31,2.61,28.29,28.29,0,0,0,6.77,1,10.85,10.85,0,0,0,4.54-.91,2.79,2.79,0,0,0,2-2.51c0-.92-.62-1.81-1.86-2.66a20.1,20.1,0,0,0-5.18-2.35,43.25,43.25,0,0,1-12.8-6.61,12.26,12.26,0,0,1-5-10,14.45,14.45,0,0,1,5.76-12.11q5.76-4.43,15.78-4.43a40,40,0,0,1,9.45,1.34,25.65,25.65,0,0,1,9.12,4.1l-4.81,10.88q-7.45-3.3-13.22-3.3a7.8,7.8,0,0,0-4.06,1,2.82,2.82,0,0,0-1.59,2.45c0,1.14,2.23,2.49,6.72,4.05q17.8,6.19,17.81,17.29,0,8-5.49,12.37T1022.9,478Z" fill="#fff"/>
  </g>
</svg>
